<svg width="1188" height="870" viewBox="0 0 1188 870" fill="none" xmlns="http://www.w3.org/2000/svg">
<g opacity="0.5" filter="url(#filter0_f_21_28)">
<path d="M1179.16 86.6747L96.7253 8.53955L8.09993 783.603L1090.53 861.738L1179.16 86.6747Z" fill="#5BE444"/>
<path d="M1179.16 86.6747L96.7253 8.53955L8.09993 783.603L1090.53 861.738L1179.16 86.6747Z" stroke="#FF0721" stroke-width="0.300123" stroke-linecap="round"/>
</g>
<path d="M219.576 134.191L214.238 133.807L148.859 703.762L154.198 704.146L219.576 134.191Z" fill="#0077ED"/>
<path d="M971.042 762.923L971.653 757.596L154.809 698.819L154.198 704.146L971.042 762.923Z" fill="#0077ED"/>
<path d="M173.179 526.937C173.179 526.937 299.457 437.635 378.093 441.654C432.324 444.425 505.158 513.558 562.557 528.774C662.177 555.182 764.309 522.05 856.608 470.044C922.274 433.044 1001.97 293.874 1001.97 293.874" stroke="#E61D14" stroke-width="0.765"/>
<path d="M278.013 476.768C283.415 477.157 288.295 473.103 288.914 467.713C289.532 462.323 285.654 457.639 280.252 457.25C274.849 456.861 269.969 460.915 269.351 466.305C268.732 471.695 272.61 476.38 278.013 476.768Z" fill="#0077ED" stroke="#E61D14" stroke-width="0.300122" stroke-linecap="round"/>
<path d="M433.642 471.099C439.044 471.488 443.925 467.433 444.543 462.043C445.161 456.654 441.283 451.969 435.881 451.58C430.479 451.192 425.598 455.246 424.98 460.636C424.362 466.026 428.24 470.71 433.642 471.099Z" fill="#0077ED" stroke="#E61D14" stroke-width="0.300122" stroke-linecap="round"/>
<path d="M569.457 539.91C574.859 540.298 579.74 536.244 580.358 530.854C580.976 525.464 577.098 520.78 571.696 520.391C566.293 520.002 561.413 524.057 560.795 529.446C560.176 534.836 564.055 539.521 569.457 539.91Z" fill="#0077ED" stroke="#E61D14" stroke-width="0.300122" stroke-linecap="round"/>
<path d="M719.176 536.626C724.578 537.015 729.459 532.961 730.077 527.571C730.695 522.181 726.817 517.497 721.415 517.108C716.013 516.719 711.132 520.773 710.514 526.163C709.896 531.553 713.774 536.238 719.176 536.626Z" fill="#0077ED" stroke="#E61D14" stroke-width="0.300122" stroke-linecap="round"/>
<path d="M870.661 468.809C876.063 469.198 880.944 465.144 881.562 459.754C882.181 454.364 878.302 449.679 872.9 449.291C867.498 448.902 862.617 452.956 861.999 458.346C861.381 463.736 865.259 468.42 870.661 468.809Z" fill="#0077ED" stroke="#E61D14" stroke-width="0.300122" stroke-linecap="round"/>
<defs>
<filter id="filter0_f_21_28" x="0.00990534" y="0.456316" width="1187.24" height="869.365" filterUnits="userSpaceOnUse" color-interpolation-filters="sRGB">
<feFlood flood-opacity="0" result="BackgroundImageFix"/>
<feBlend mode="normal" in="SourceGraphic" in2="BackgroundImageFix" result="shape"/>
<feGaussianBlur stdDeviation="3.96166" result="effect1_foregroundBlur_21_28"/>
</filter>
</defs>
</svg>
