<?xml version="1.0" standalone="no"?>
<!DOCTYPE svg PUBLIC "-//W3C//DTD SVG 20010904//EN"
 "http://www.w3.org/TR/2001/REC-SVG-20010904/DTD/svg10.dtd">
<svg version="1.0" xmlns="http://www.w3.org/2000/svg"
 width="1280.000000pt" height="640.000000pt" viewBox="0 0 1280.000000 640.000000"
 preserveAspectRatio="xMidYMid meet">
<g transform="translate(0.000000,640.000000) scale(0.100000,-0.100000)"
fill="#000000" stroke="none">
<path d="M4805 5232 c-779 -449 -856 -495 -842 -504 8 -4 817 -9 1798 -10
l1784 -3 644 375 643 375 -503 6 c-277 3 -1087 7 -1799 8 l-1295 1 -430 -248z"/>
<path d="M8775 5317 c-138 -77 -348 -198 -942 -542 l-223 -129 0 -898 c0 -494
2 -898 4 -898 5 0 286 161 931 532 l390 225 3 876 c1 481 -1 884 -6 896 -7 20
-15 17 -157 -62z"/>
<path d="M3810 2770 l0 -1850 1850 0 1850 0 0 1850 0 1850 -1850 0 -1850 0 0
-1850z"/>
<path d="M1315 4196 c-49 -29 -330 -192 -622 -361 -293 -169 -533 -312 -533
-316 0 -5 777 -9 1780 -9 l1780 0 0 370 0 370 -1157 0 -1158 -1 -90 -53z"/>
<path d="M9015 3544 c-205 -115 -1247 -722 -1258 -733 -17 -17 386 -21 1955
-21 l1629 0 402 232 c346 199 703 407 841 489 l39 23 -29 9 c-17 5 -781 11
-1789 13 -1636 4 -1762 3 -1790 -12z"/>
<path d="M12725 3476 c-22 -13 -152 -88 -290 -166 -581 -331 -1001 -574 -1017
-588 -17 -14 -18 -70 -18 -898 0 -486 4 -885 8 -888 5 -3 53 21 108 53 54 32
366 212 693 401 l593 343 -6 836 c-5 791 -9 932 -25 931 -3 -1 -24 -11 -46
-24z"/>
<path d="M0 2155 l0 -1235 1855 0 1855 0 0 1235 0 1235 -1855 0 -1855 0 0
-1235z"/>
<path d="M7610 1810 l0 -890 1850 0 1850 0 0 890 0 890 -1850 0 -1850 0 0
-890z"/>
</g>
</svg>
