<svg width="450" height="213" viewBox="0 0 450 213" fill="none" xmlns="http://www.w3.org/2000/svg">
<circle cx="89.5" cy="35.5" r="35.5" fill="#161616"/>
<path d="M84.7592 42.3125V41.6136C84.7592 39.6818 84.9183 38.142 85.2365 36.9943C85.5661 35.8466 86.0433 34.9261 86.6683 34.233C87.2933 33.5284 88.0547 32.8864 88.9524 32.3068C89.6683 31.8523 90.3047 31.392 90.8615 30.9261C91.4297 30.4489 91.8786 29.9375 92.2081 29.392C92.5376 28.8466 92.7024 28.2273 92.7024 27.5341C92.7024 26.8636 92.5433 26.2727 92.2251 25.7614C91.907 25.25 91.4695 24.858 90.9126 24.5852C90.3672 24.3011 89.7592 24.1591 89.0888 24.1591C88.4183 24.1591 87.7876 24.3125 87.1967 24.6193C86.6172 24.9261 86.1399 25.3636 85.7649 25.9318C85.4013 26.4886 85.2138 27.1648 85.2024 27.9602H77.3615C77.3956 25.5739 77.9467 23.6193 79.0149 22.0966C80.0945 20.5739 81.5206 19.4489 83.2933 18.7216C85.0661 17.983 87.0206 17.6136 89.157 17.6136C91.4979 17.6136 93.5774 17.9773 95.3956 18.7045C97.2251 19.4318 98.6626 20.5057 99.7081 21.9261C100.754 23.3466 101.276 25.0852 101.276 27.142C101.276 28.4943 101.049 29.6875 100.594 30.7216C100.14 31.7557 99.5036 32.6705 98.6854 33.4659C97.8786 34.25 96.9297 34.9659 95.8388 35.6136C94.9865 36.1136 94.2763 36.6364 93.7081 37.1818C93.1513 37.7273 92.7308 38.3523 92.4467 39.0568C92.1626 39.75 92.0206 40.6023 92.0206 41.6136V42.3125H84.7592ZM88.5263 53.4943C87.299 53.4943 86.2479 53.0625 85.3729 52.1989C84.5092 51.3352 84.0831 50.2898 84.0945 49.0625C84.0831 47.858 84.5092 46.8295 85.3729 45.9773C86.2479 45.1136 87.299 44.6818 88.5263 44.6818C89.6967 44.6818 90.7251 45.1136 91.6115 45.9773C92.4979 46.8295 92.9467 47.858 92.9581 49.0625C92.9467 49.8807 92.7308 50.625 92.3104 51.2955C91.9013 51.9659 91.3615 52.5 90.6911 52.8977C90.032 53.2955 89.3104 53.4943 88.5263 53.4943Z" fill="white"/>
<g clip-path="url(#clip0_126_2)">
<path d="M317.911 44.6205C315.698 41.6234 312.081 40.0161 308.472 40.4272C301.931 41.1674 278.318 50.6536 278.318 50.6536C278.318 50.6536 254.705 60.1396 249.47 64.1305C246.58 66.3301 245.079 69.9933 245.555 73.6879C246.414 80.3864 251.498 93.0403 251.498 93.0403C251.498 93.0403 256.581 105.694 260.595 111.125C262.807 114.123 266.425 115.729 270.033 115.319C276.575 114.578 300.187 105.092 300.187 105.092C300.187 105.092 323.801 95.606 329.036 91.6159C331.926 89.4156 333.426 85.753 332.95 82.0581C332.092 75.3589 327.008 62.7056 327.008 62.7056C327.008 62.7056 321.925 50.0517 317.911 44.6209" fill="#FF0000"/>
<path d="M286.146 92.4639L301.266 73.0475L276.915 69.4866L286.146 92.4639Z" fill="white"/>
</g>
<path d="M203.984 175.592L208.856 187.743L205.925 188.918L202.152 179.508L202.081 179.537L200.03 182.287L199.012 179.748L201.261 176.684L203.984 175.592ZM216.686 184.948C215.626 185.373 214.612 185.488 213.643 185.294C212.673 185.095 211.79 184.606 210.996 183.827C210.2 183.045 209.537 181.986 209.007 180.651C208.476 179.317 208.23 178.102 208.269 177.008C208.31 175.908 208.615 174.962 209.183 174.169C209.754 173.371 210.569 172.759 211.629 172.335C212.689 171.91 213.701 171.788 214.665 171.971C215.632 172.149 216.51 172.621 217.299 173.388C218.089 174.155 218.748 175.203 219.277 176.534C219.813 177.871 220.063 179.097 220.028 180.213C219.994 181.329 219.693 182.292 219.127 183.102C218.564 183.906 217.75 184.522 216.686 184.948ZM215.723 182.545C216.356 182.292 216.739 181.764 216.872 180.962C217.003 180.156 216.798 179.084 216.257 177.745C215.905 176.867 215.526 176.178 215.119 175.68C214.711 175.178 214.293 174.85 213.864 174.696C213.435 174.542 213.009 174.55 212.585 174.72C211.957 174.972 211.576 175.494 211.444 176.286C211.31 177.074 211.504 178.126 212.027 179.441C212.379 180.332 212.76 181.036 213.169 181.551C213.582 182.065 214.006 182.403 214.442 182.563C214.877 182.719 215.304 182.713 215.723 182.545ZM228.531 180.199C227.471 180.624 226.457 180.739 225.488 180.545C224.518 180.346 223.636 179.857 222.841 179.079C222.045 178.296 221.382 177.237 220.852 175.903C220.321 174.568 220.076 173.354 220.114 172.259C220.155 171.159 220.46 170.213 221.028 169.42C221.599 168.622 222.415 168.011 223.475 167.586C224.535 167.161 225.547 167.04 226.511 167.223C227.477 167.4 228.355 167.872 229.144 168.639C229.934 169.406 230.593 170.455 231.122 171.785C231.658 173.122 231.909 174.349 231.874 175.464C231.839 176.58 231.539 177.543 230.973 178.353C230.409 179.157 229.595 179.773 228.531 180.199ZM227.568 177.796C228.201 177.543 228.584 177.015 228.717 176.213C228.849 175.408 228.644 174.335 228.102 172.996C227.75 172.118 227.371 171.43 226.964 170.931C226.557 170.429 226.138 170.101 225.709 169.947C225.28 169.793 224.854 169.801 224.431 169.971C223.802 170.223 223.421 170.745 223.289 171.537C223.155 172.326 223.349 173.377 223.872 174.692C224.225 175.583 224.605 176.287 225.014 176.803C225.427 177.317 225.851 177.654 226.287 177.814C226.722 177.97 227.149 177.965 227.568 177.796ZM236.435 176.886C236.007 177.058 235.581 177.054 235.156 176.875C234.735 176.695 234.441 176.391 234.274 175.962C234.102 175.544 234.106 175.127 234.288 174.71C234.472 174.287 234.778 173.99 235.205 173.819C235.608 173.657 236.025 173.665 236.454 173.842C236.885 174.013 237.187 174.308 237.359 174.725C237.469 175.012 237.498 175.301 237.445 175.593C237.396 175.883 237.283 176.145 237.105 176.377C236.931 176.607 236.708 176.777 236.435 176.886ZM244.423 173.828C243.363 174.253 242.349 174.368 241.38 174.174C240.41 173.975 239.527 173.486 238.733 172.708C237.937 171.925 237.274 170.866 236.743 169.532C236.213 168.197 235.967 166.983 236.006 165.888C236.047 164.788 236.352 163.842 236.92 163.049C237.491 162.251 238.306 161.64 239.366 161.215C240.426 160.79 241.438 160.669 242.402 160.852C243.368 161.029 244.246 161.501 245.036 162.268C245.825 163.035 246.485 164.084 247.014 165.414C247.549 166.751 247.8 167.978 247.765 169.093C247.731 170.209 247.43 171.172 246.864 171.982C246.301 172.786 245.487 173.402 244.423 173.828ZM243.46 171.426C244.093 171.172 244.475 170.644 244.609 169.842C244.74 169.037 244.535 167.964 243.994 166.625C243.642 165.747 243.262 165.059 242.856 164.561C242.448 164.058 242.03 163.73 241.601 163.576C241.172 163.422 240.746 163.43 240.322 163.6C239.693 163.852 239.313 164.374 239.18 165.166C239.047 165.955 239.241 167.006 239.763 168.321C240.116 169.212 240.497 169.916 240.906 170.432C241.318 170.946 241.743 171.283 242.179 171.443C242.613 171.599 243.04 171.594 243.46 171.426ZM256.268 169.08C255.208 169.505 254.194 169.62 253.225 169.425C252.255 169.226 251.373 168.738 250.578 167.959C249.782 167.176 249.119 166.117 248.589 164.783C248.058 163.448 247.812 162.234 247.851 161.139C247.892 160.039 248.197 159.093 248.765 158.301C249.336 157.502 250.151 156.891 251.211 156.466C252.271 156.041 253.283 155.92 254.247 156.103C255.214 156.28 256.092 156.752 256.881 157.519C257.671 158.286 258.33 159.335 258.859 160.666C259.395 162.002 259.645 163.229 259.611 164.345C259.576 165.46 259.276 166.423 258.71 167.233C258.146 168.038 257.332 168.653 256.268 169.08ZM255.305 166.677C255.938 166.423 256.321 165.895 256.454 165.094C256.585 164.288 256.38 163.215 255.839 161.876C255.487 160.998 255.108 160.31 254.701 159.812C254.293 159.31 253.875 158.982 253.446 158.828C253.017 158.674 252.591 158.681 252.168 158.851C251.539 159.103 251.158 159.625 251.026 160.418C250.892 161.206 251.086 162.257 251.609 163.572C251.961 164.464 252.342 165.167 252.751 165.683C253.164 166.197 253.588 166.534 254.024 166.694C254.459 166.851 254.886 166.845 255.305 166.677ZM268.114 164.331C267.053 164.756 266.039 164.871 265.07 164.676C264.1 164.478 263.218 163.989 262.423 163.21C261.628 162.427 260.964 161.369 260.434 160.034C259.904 158.699 259.658 157.485 259.696 156.391C259.738 155.291 260.042 154.344 260.611 153.552C261.181 152.754 261.997 152.142 263.057 151.717C264.117 151.292 265.129 151.171 266.093 151.354C267.059 151.531 267.937 152.003 268.727 152.77C269.516 153.537 270.175 154.586 270.704 155.917C271.24 157.254 271.491 158.48 271.456 159.596C271.421 160.712 271.121 161.674 270.555 162.484C269.991 163.289 269.178 163.904 268.114 164.331ZM267.15 161.928C267.783 161.674 268.166 161.147 268.299 160.345C268.431 159.539 268.226 158.467 267.684 157.127C267.332 156.249 266.953 155.561 266.547 155.063C266.139 154.561 265.72 154.233 265.291 154.079C264.862 153.925 264.436 153.933 264.013 154.102C263.384 154.354 263.003 154.877 262.871 155.669C262.737 156.457 262.931 157.509 263.454 158.823C263.807 159.715 264.188 160.418 264.596 160.934C265.009 161.448 265.433 161.785 265.869 161.946C266.304 162.102 266.731 162.096 267.15 161.928ZM276.017 161.018C275.59 161.189 275.163 161.185 274.738 161.007C274.317 160.827 274.023 160.522 273.856 160.094C273.684 159.676 273.689 159.259 273.87 158.841C274.054 158.419 274.36 158.122 274.787 157.95C275.191 157.789 275.607 157.796 276.036 157.973C276.467 158.145 276.769 158.439 276.941 158.857C277.051 159.143 277.08 159.432 277.027 159.724C276.978 160.015 276.865 160.276 276.687 160.508C276.513 160.738 276.29 160.908 276.017 161.018ZM284.005 157.96C282.945 158.385 281.931 158.5 280.962 158.305C279.992 158.107 279.109 157.618 278.315 156.839C277.519 156.056 276.856 154.998 276.326 153.663C275.795 152.329 275.549 151.114 275.588 150.02C275.629 148.92 275.934 147.973 276.502 147.181C277.073 146.383 277.888 145.771 278.948 145.346C280.008 144.921 281.02 144.8 281.984 144.983C282.951 145.16 283.829 145.632 284.618 146.399C285.408 147.166 286.067 148.215 286.596 149.546C287.132 150.883 287.382 152.109 287.348 153.225C287.313 154.341 287.012 155.303 286.446 156.113C285.883 156.918 285.069 157.533 284.005 157.96ZM283.042 155.557C283.675 155.303 284.058 154.776 284.191 153.974C284.322 153.168 284.117 152.096 283.576 150.756C283.224 149.878 282.845 149.19 282.438 148.692C282.03 148.19 281.612 147.862 281.183 147.708C280.754 147.554 280.328 147.562 279.904 147.731C279.276 147.983 278.895 148.506 278.763 149.298C278.629 150.086 278.823 151.138 279.346 152.452C279.698 153.344 280.079 154.047 280.488 154.563C280.901 155.077 281.325 155.414 281.761 155.575C282.196 155.731 282.623 155.725 283.042 155.557ZM295.85 153.211C294.79 153.636 293.776 153.751 292.807 153.556C291.837 153.358 290.955 152.869 290.16 152.09C289.364 151.307 288.701 150.249 288.171 148.914C287.64 147.58 287.395 146.365 287.433 145.271C287.474 144.171 287.779 143.225 288.347 142.432C288.918 141.634 289.734 141.022 290.794 140.597C291.854 140.173 292.866 140.051 293.83 140.234C294.796 140.412 295.674 140.884 296.463 141.651C297.253 142.418 297.912 143.466 298.441 144.797C298.977 146.134 299.228 147.36 299.193 148.476C299.158 149.592 298.858 150.555 298.292 151.365C297.728 152.169 296.914 152.785 295.85 153.211ZM294.887 150.808C295.52 150.554 295.903 150.027 296.036 149.225C296.168 148.419 295.963 147.347 295.421 146.008C295.069 145.13 294.69 144.441 294.283 143.943C293.876 143.441 293.457 143.113 293.028 142.959C292.599 142.805 292.173 142.813 291.75 142.983C291.121 143.235 290.74 143.757 290.608 144.549C290.474 145.337 290.668 146.389 291.191 147.704C291.544 148.595 291.924 149.299 292.333 149.814C292.746 150.328 293.17 150.666 293.606 150.826C294.041 150.982 294.468 150.976 294.887 150.808ZM307.696 148.462C306.636 148.887 305.621 149.002 304.653 148.808C303.682 148.609 302.8 148.12 302.006 147.341C301.21 146.559 300.547 145.5 300.016 144.165C299.486 142.831 299.24 141.616 299.279 140.522C299.32 139.422 299.624 138.476 300.193 137.683C300.763 136.885 301.579 136.274 302.639 135.849C303.699 135.424 304.711 135.303 305.675 135.485C306.641 135.663 307.519 136.135 308.309 136.902C309.098 137.669 309.757 138.718 310.286 140.048C310.822 141.385 311.073 142.611 311.038 143.727C311.003 144.843 310.703 145.806 310.137 146.616C309.573 147.42 308.76 148.036 307.696 148.462ZM306.732 146.059C307.365 145.806 307.748 145.278 307.881 144.476C308.013 143.671 307.808 142.598 307.266 141.259C306.914 140.381 306.535 139.693 306.129 139.194C305.721 138.692 305.302 138.364 304.873 138.21C304.444 138.056 304.018 138.064 303.595 138.234C302.966 138.486 302.586 139.008 302.453 139.8C302.319 140.589 302.514 141.64 303.036 142.955C303.389 143.846 303.77 144.55 304.178 145.066C304.591 145.58 305.015 145.917 305.452 146.077C305.886 146.233 306.313 146.227 306.732 146.059ZM321.167 132.842C320.953 132.423 320.641 132.155 320.232 132.039C319.825 131.918 319.335 131.972 318.762 132.202C318.382 132.354 318.085 132.53 317.872 132.731C317.658 132.931 317.523 133.143 317.466 133.368C317.408 133.589 317.421 133.811 317.506 134.034C317.571 134.219 317.671 134.365 317.806 134.472C317.944 134.577 318.112 134.652 318.309 134.697C318.508 134.736 318.735 134.751 318.988 134.742C319.241 134.732 319.518 134.701 319.819 134.65L320.958 134.468C321.612 134.358 322.211 134.319 322.757 134.353C323.307 134.385 323.799 134.489 324.232 134.664C324.669 134.838 325.047 135.088 325.366 135.414C325.685 135.741 325.944 136.147 326.143 136.632C326.447 137.401 326.517 138.137 326.354 138.84C326.191 139.544 325.808 140.186 325.205 140.768C324.607 141.347 323.801 141.84 322.789 142.246C321.772 142.654 320.825 142.857 319.947 142.855C319.07 142.853 318.297 142.626 317.629 142.173C316.96 141.72 316.43 141.021 316.038 140.077L318.85 138.95C319.031 139.332 319.266 139.616 319.557 139.802C319.847 139.989 320.182 140.084 320.56 140.089C320.942 140.092 321.349 140.007 321.78 139.834C322.176 139.675 322.49 139.487 322.724 139.269C322.963 139.05 323.119 138.815 323.193 138.565C323.267 138.315 323.257 138.067 323.163 137.82C323.067 137.592 322.917 137.425 322.713 137.318C322.508 137.207 322.238 137.151 321.901 137.148C321.568 137.139 321.158 137.172 320.674 137.247L319.286 137.46C318.137 137.64 317.152 137.583 316.331 137.287C315.509 136.988 314.915 136.377 314.549 135.454C314.244 134.704 314.182 133.964 314.362 133.235C314.543 132.506 314.93 131.839 315.523 131.234C316.116 130.629 316.873 130.142 317.795 129.773C318.736 129.395 319.617 129.228 320.438 129.271C321.261 129.308 321.979 129.537 322.593 129.956C323.206 130.376 323.668 130.962 323.979 131.715L321.167 132.842ZM333.342 133.27L331.266 128.091L334.161 126.93L337.814 136.043L335.05 137.152L334.369 135.455L334.274 135.493C334.296 136.132 334.13 136.712 333.775 137.236C333.422 137.754 332.904 138.15 332.22 138.424C331.599 138.673 330.996 138.749 330.411 138.653C329.826 138.557 329.301 138.306 328.835 137.901C328.368 137.491 327.994 136.943 327.715 136.257L325.386 130.448L328.287 129.285L330.387 134.524C330.59 135.017 330.876 135.354 331.248 135.536C331.619 135.717 332.026 135.719 332.469 135.542C332.758 135.426 332.991 135.259 333.17 135.04C333.351 134.816 333.46 134.555 333.496 134.256C333.534 133.951 333.483 133.622 333.342 133.27ZM339.661 135.303L334.79 123.152L337.691 121.989L339.534 126.587L339.594 126.563C339.601 126.239 339.662 125.905 339.777 125.56C339.895 125.214 340.092 124.892 340.367 124.594C340.645 124.29 341.023 124.042 341.501 123.85C342.134 123.596 342.792 123.525 343.475 123.637C344.162 123.747 344.814 124.08 345.432 124.636C346.05 125.192 346.573 126.006 347.003 127.078C347.417 128.11 347.599 129.04 347.55 129.868C347.505 130.694 347.275 131.392 346.861 131.962C346.451 132.531 345.909 132.95 345.237 133.219C344.778 133.403 344.351 133.487 343.954 133.472C343.558 133.456 343.196 133.372 342.868 133.219C342.544 133.064 342.265 132.87 342.029 132.639L341.94 132.674L342.533 134.152L339.661 135.303ZM340.676 129.607C340.873 130.098 341.109 130.499 341.386 130.81C341.666 131.12 341.971 131.326 342.301 131.428C342.634 131.524 342.976 131.502 343.328 131.361C343.684 131.218 343.947 130.998 344.117 130.7C344.285 130.398 344.36 130.04 344.34 129.626C344.325 129.209 344.219 128.756 344.022 128.266C343.826 127.775 343.59 127.376 343.315 127.069C343.044 126.759 342.745 126.556 342.416 126.458C342.092 126.358 341.749 126.381 341.39 126.525C341.034 126.668 340.77 126.886 340.598 127.18C340.427 127.474 340.346 127.827 340.356 128.241C340.37 128.653 340.476 129.109 340.676 129.607ZM355.766 121.498L353.131 122.638C353.027 122.459 352.884 122.321 352.703 122.224C352.52 122.123 352.313 122.07 352.082 122.066C351.854 122.057 351.611 122.104 351.354 122.207C351.017 122.342 350.757 122.524 350.574 122.754C350.395 122.982 350.353 123.21 350.449 123.437C350.516 123.617 350.649 123.743 350.848 123.815C351.051 123.885 351.36 123.883 351.775 123.808L353.664 123.436C354.644 123.245 355.436 123.263 356.041 123.489C356.649 123.713 357.089 124.157 357.359 124.82C357.606 125.446 357.638 126.064 357.456 126.675C357.277 127.283 356.923 127.843 356.393 128.354C355.862 128.861 355.189 129.278 354.374 129.604C353.073 130.126 351.939 130.27 350.974 130.038C350.011 129.799 349.295 129.251 348.826 128.392L351.664 127.172C351.86 127.479 352.126 127.666 352.461 127.734C352.795 127.802 353.168 127.753 353.58 127.588C353.952 127.439 354.226 127.249 354.404 127.017C354.582 126.785 354.627 126.553 354.539 126.322C354.453 126.118 354.296 125.99 354.069 125.939C353.84 125.884 353.521 125.897 353.113 125.978L351.402 126.313C350.422 126.513 349.618 126.479 348.992 126.211C348.364 125.94 347.913 125.455 347.638 124.757C347.39 124.15 347.343 123.564 347.499 123.002C347.653 122.435 347.986 121.916 348.499 121.444C349.013 120.972 349.681 120.571 350.503 120.241C351.737 119.746 352.814 119.615 353.734 119.848C354.652 120.077 355.329 120.627 355.766 121.498ZM364.281 125.633C363.32 126.018 362.416 126.151 361.569 126.031C360.726 125.91 359.98 125.571 359.329 125.014C358.678 124.454 358.166 123.709 357.793 122.779C357.419 121.846 357.274 120.953 357.36 120.102C357.448 119.245 357.755 118.481 358.281 117.812C358.81 117.14 359.552 116.613 360.505 116.231C361.347 115.893 362.142 115.752 362.889 115.806C363.64 115.858 364.303 116.092 364.879 116.509C365.457 116.92 365.906 117.495 366.225 118.235L363.514 119.322C363.271 118.878 362.967 118.575 362.599 118.415C362.236 118.253 361.847 118.255 361.431 118.422C361.095 118.556 360.838 118.769 360.661 119.061C360.483 119.348 360.396 119.704 360.401 120.129C360.409 120.549 360.52 121.027 360.736 121.565C360.951 122.103 361.203 122.53 361.49 122.847C361.78 123.157 362.09 123.357 362.419 123.445C362.747 123.53 363.079 123.505 363.415 123.37C363.684 123.262 363.898 123.109 364.058 122.912C364.222 122.713 364.326 122.476 364.372 122.201C364.416 121.922 364.392 121.615 364.299 121.28L367.01 120.193C367.284 120.956 367.359 121.687 367.236 122.389C367.117 123.088 366.808 123.72 366.308 124.283C365.811 124.84 365.135 125.29 364.281 125.633ZM369.927 123.169L366.273 114.056L369.092 112.926L369.758 114.588L369.852 114.55C369.778 113.882 369.869 113.326 370.128 112.883C370.385 112.436 370.762 112.112 371.261 111.912C371.395 111.858 371.537 111.813 371.688 111.775C371.836 111.734 371.979 111.707 372.116 111.693L373.127 114.215C372.97 114.223 372.773 114.258 372.536 114.321C372.303 114.382 372.1 114.447 371.926 114.517C371.582 114.655 371.302 114.857 371.087 115.122C370.875 115.382 370.744 115.68 370.695 116.016C370.649 116.347 370.698 116.694 370.844 117.058L372.828 122.006L369.927 123.169ZM376.959 120.35L373.305 111.237L376.207 110.074L379.86 119.187L376.959 120.35ZM374.333 109.592C373.926 109.756 373.522 109.762 373.121 109.61C372.719 109.454 372.441 109.185 372.288 108.801C372.135 108.421 372.152 108.038 372.337 107.652C372.52 107.262 372.815 106.985 373.223 106.822C373.634 106.657 374.039 106.653 374.437 106.81C374.837 106.962 375.114 107.227 375.266 107.607C375.42 107.991 375.405 108.378 375.222 108.768C375.041 109.153 374.745 109.427 374.333 109.592ZM381.707 118.447L376.836 106.296L379.737 105.133L381.58 109.731L381.64 109.707C381.647 109.383 381.708 109.048 381.823 108.704C381.941 108.358 382.138 108.036 382.413 107.737C382.691 107.433 383.069 107.185 383.547 106.993C384.18 106.74 384.838 106.669 385.521 106.781C386.208 106.891 386.86 107.224 387.478 107.78C388.096 108.336 388.619 109.149 389.049 110.221C389.463 111.254 389.645 112.184 389.596 113.011C389.551 113.838 389.321 114.536 388.907 115.106C388.497 115.674 387.955 116.093 387.283 116.363C386.824 116.547 386.396 116.631 386 116.616C385.603 116.6 385.241 116.516 384.914 116.362C384.59 116.207 384.31 116.014 384.075 115.783L383.986 115.818L384.578 117.296L381.707 118.447ZM382.722 112.751C382.919 113.241 383.155 113.642 383.432 113.954C383.712 114.264 384.017 114.47 384.347 114.572C384.68 114.668 385.022 114.645 385.374 114.504C385.73 114.362 385.993 114.141 386.163 113.844C386.331 113.542 386.406 113.184 386.386 112.769C386.371 112.353 386.265 111.9 386.068 111.409C385.872 110.919 385.636 110.52 385.361 110.212C385.09 109.903 384.791 109.7 384.462 109.602C384.138 109.502 383.795 109.525 383.435 109.669C383.079 109.812 382.816 110.03 382.644 110.324C382.473 110.617 382.392 110.971 382.402 111.385C382.415 111.797 382.522 112.253 382.722 112.751ZM396.723 112.627C395.769 113.009 394.871 113.151 394.028 113.053C393.188 112.949 392.442 112.621 391.789 112.07C391.139 111.514 390.62 110.751 390.231 109.782C389.854 108.84 389.71 107.943 389.799 107.09C389.887 106.233 390.191 105.473 390.71 104.81C391.228 104.144 391.946 103.626 392.864 103.259C393.512 102.998 394.146 102.861 394.765 102.848C395.384 102.834 395.968 102.946 396.518 103.184C397.068 103.423 397.569 103.789 398.019 104.284C398.468 104.774 398.843 105.393 399.143 106.14L399.433 106.864L391.512 110.04L390.837 108.355L396.058 106.261C395.93 105.955 395.747 105.709 395.508 105.525C395.268 105.341 394.997 105.231 394.694 105.197C394.393 105.156 394.083 105.201 393.763 105.329C393.438 105.459 393.177 105.649 392.978 105.898C392.778 106.144 392.653 106.421 392.603 106.731C392.551 107.036 392.583 107.347 392.701 107.662L393.388 109.377C393.537 109.749 393.741 110.046 394 110.268C394.258 110.486 394.552 110.618 394.882 110.665C395.213 110.711 395.565 110.66 395.936 110.511C396.193 110.408 396.413 110.279 396.594 110.123C396.775 109.968 396.913 109.791 397.007 109.593C397.102 109.394 397.147 109.179 397.141 108.947L399.836 107.956C399.965 108.598 399.93 109.215 399.732 109.809C399.536 110.397 399.185 110.935 398.678 111.423C398.169 111.907 397.518 112.308 396.723 112.627ZM402.461 110.127L398.807 101.013L401.625 99.8837L402.291 101.545L402.386 101.507C402.311 100.839 402.403 100.283 402.661 99.8401C402.918 99.3928 403.296 99.0693 403.794 98.8695C403.929 98.8156 404.071 98.77 404.221 98.7327C404.37 98.6914 404.513 98.664 404.65 98.6504L405.661 101.172C405.503 101.18 405.306 101.215 405.07 101.278C404.837 101.339 404.634 101.405 404.46 101.474C404.116 101.612 403.836 101.814 403.621 102.079C403.408 102.339 403.278 102.637 403.229 102.973C403.182 103.304 403.232 103.651 403.378 104.015L405.362 108.963L402.461 110.127ZM414.911 97.7872L412.276 98.9264C412.172 98.7477 412.029 98.6097 411.848 98.5125C411.665 98.4113 411.458 98.3589 411.227 98.3551C410.998 98.3458 410.755 98.3927 410.498 98.4957C410.162 98.6305 409.902 98.8127 409.719 99.0423C409.539 99.2704 409.498 99.4983 409.594 99.7261C409.661 99.9057 409.794 100.031 409.993 100.103C410.195 100.174 410.504 100.171 410.92 100.097L412.809 99.7248C413.789 99.5341 414.581 99.5517 415.185 99.7776C415.794 100.002 416.234 100.445 416.504 101.108C416.751 101.735 416.783 102.353 416.6 102.964C416.422 103.572 416.068 104.132 415.538 104.643C415.007 105.15 414.334 105.566 413.519 105.893C412.218 106.415 411.084 106.559 410.119 106.326C409.155 106.088 408.44 105.54 407.971 104.681L410.808 103.461C411.005 103.767 411.271 103.955 411.605 104.023C411.94 104.09 412.313 104.042 412.724 103.877C413.096 103.728 413.371 103.537 413.549 103.305C413.727 103.073 413.772 102.842 413.684 102.611C413.597 102.407 413.441 102.279 413.213 102.228C412.985 102.173 412.666 102.186 412.258 102.267L410.547 102.601C409.566 102.802 408.763 102.768 408.137 102.5C407.509 102.228 407.058 101.744 406.783 101.046C406.535 100.438 406.488 99.8532 406.644 99.2904C406.797 98.7237 407.131 98.2044 407.644 97.7323C408.157 97.2603 408.825 96.8594 409.648 96.5296C410.882 96.0348 411.959 95.9038 412.879 96.1366C413.797 96.3653 414.474 96.9155 414.911 97.7872Z" fill="#0EF5F5"/>
<g clip-path="url(#clip1_126_2)">
<path d="M68.6965 77.6075C57.5592 83.9917 56.4584 84.6458 56.6585 84.7738C56.7729 84.8306 68.3391 84.9017 82.3643 84.916L107.87 84.9586L117.077 79.6266L126.27 74.2946L119.079 74.2092C115.118 74.1666 103.538 74.1097 93.3586 74.0955L74.8441 74.0813L68.6965 77.6075Z" fill="black"/>
<path d="M125.455 76.3989C123.482 77.4938 120.48 79.2142 111.987 84.1055L108.799 85.9397V98.7081C108.799 105.732 108.828 111.477 108.856 111.477C108.928 111.477 112.945 109.187 122.167 103.912L127.743 100.713L127.785 88.2573C127.8 81.4181 127.771 75.688 127.7 75.5173C127.6 75.233 127.485 75.2756 125.455 76.3989Z" fill="black"/>
<path d="M54.4711 112.614V138.919H80.9203H107.37V112.614V86.3094H80.9203H54.4711V112.614Z" fill="black"/>
<path d="M18.8004 92.3382C18.0998 92.7505 14.0824 95.0682 9.90771 97.4711C5.71873 99.8741 2.28748 101.907 2.28748 101.964C2.28748 102.035 13.3961 102.092 27.7359 102.092H53.1843V96.8313V91.5703H36.6429L20.0871 91.5846L18.8004 92.3382Z" fill="black"/>
<path d="M128.886 101.609C125.955 103.244 111.058 111.875 110.901 112.031C110.658 112.273 116.419 112.33 138.851 112.33H162.141L167.888 109.031C172.835 106.201 177.939 103.244 179.912 102.078L180.469 101.751L180.055 101.623C179.812 101.552 168.889 101.467 154.478 101.438C131.088 101.381 129.287 101.395 128.886 101.609Z" fill="black"/>
<path d="M181.928 102.576C181.613 102.761 179.755 103.827 177.782 104.936C169.475 109.642 163.47 113.098 163.242 113.297C162.999 113.496 162.984 114.292 162.984 126.065C162.984 132.975 163.042 138.649 163.099 138.691C163.17 138.734 163.856 138.393 164.643 137.938C165.415 137.483 169.875 134.923 174.551 132.236L183.029 127.359L182.943 115.472C182.871 104.225 182.814 102.22 182.585 102.234C182.543 102.249 182.242 102.391 181.928 102.576Z" fill="black"/>
<path d="M0 121.359V138.919H26.5207H53.0414V121.359V103.798H26.5207H0V121.359Z" fill="black"/>
<path d="M108.799 126.264V138.919H135.248H161.698V126.264V113.609H135.248H108.799V126.264Z" fill="black"/>
</g>
<defs>
<clipPath id="clip0_126_2">
<rect width="129" height="88" fill="white" transform="translate(213 61.088) rotate(-21.8869)"/>
</clipPath>
<clipPath id="clip1_126_2">
<rect width="183" height="91" fill="white" transform="translate(0 61)"/>
</clipPath>
</defs>
</svg>
